<?xml version="1.0" encoding="utf-8"?>
<!-- Generator: Adobe Illustrator 19.0.0, SVG Export Plug-In . SVG Version: 6.00 Build 0)  -->
<svg version="1.1" id="layer" xmlns="http://www.w3.org/2000/svg" xmlns:xlink="http://www.w3.org/1999/xlink" x="0px" y="0px"
	 viewBox="-153 -46 652 652" style="enable-background:new -153 -46 652 652;" xml:space="preserve">
<style type="text/css">
	.st0{fill:#FFF000;stroke:#0058A6;stroke-width:6.5789;stroke-miterlimit:10;}
	.st1{fill:#0058A6;}
</style>
<rect id="XMLID_1_" x="-81.9" y="24.9" class="st0" width="500" height="500"/>
<polygon id="XMLID_6_" class="st1" points="-22,204.1 175.4,72.5 372.7,204.1 138.4,360.3 97.2,332.9 286.4,206.9 171.3,130.1 
	117.8,165.7 158.9,193.1 60.2,258.9 "/>
<polygon id="XMLID_5_" class="st1" points="372.7,335.7 175.3,467.2 -22,335.7 212.4,179.5 253.5,206.9 64.3,332.9 179.5,409.7 
	232.9,374 191.8,346.6 290.5,280.9 "/>
<polygon id="XMLID_4_" class="st1" points="372.7,127.4 331.6,154.8 290.5,127.4 372.7,72.5 "/>
<polygon id="XMLID_3_" class="st1" points="-22,412.4 19.1,385 60.2,412.4 -22,467.3 "/>
</svg>
