<svg xmlns="http://www.w3.org/2000/svg" xmlns:xlink="http://www.w3.org/1999/xlink" width="500" zoomAndPan="magnify" viewBox="0 0 375 374.999991" height="500" preserveAspectRatio="xMidYMid meet" version="1.0">
  <defs>
    <clipPath id="d12cd2dbb3">
      <path d="M 0 0.683594 L 375 0.683594 L 375 374.183594 L 0 374.183594 Z M 0 0.683594 " clip-rule="nonzero"/>
    </clipPath>
  </defs>
  <g clip-path="url(#d12cd2dbb3)">
    <path fill="#ffffff" d="M 187.582031 0.808594 C 83.964844 0.808594 0 84.746094 0 188.324219 C 0 281.351562 67.886719 358.632812 156.722656 373.242188 L 156.722656 246.121094 L 108.976562 246.121094 L 108.976562 190.433594 L 156.722656 190.433594 L 156.722656 150.007812 C 156.722656 106.175781 192.292969 76.464844 236.140625 76.464844 C 255.628906 76.464844 267.8125 79.386719 267.8125 79.386719 L 267.8125 126.144531 L 236.140625 126.144531 C 222.984375 126.144531 212.265625 136.859375 212.265625 150.007812 L 212.265625 190.433594 L 263.425781 190.433594 L 256.28125 246.121094 L 212.265625 246.121094 L 212.265625 374.054688 C 304.027344 361.878906 374.835938 283.300781 374.835938 188.324219 C 375 84.746094 291.035156 0.808594 187.582031 0.808594 Z M 187.582031 0.808594 " fill-opacity="1" fill-rule="nonzero"/>
  </g>
</svg>
