<svg xmlns="http://www.w3.org/2000/svg" xmlns:xlink="http://www.w3.org/1999/xlink" width="500" zoomAndPan="magnify" viewBox="0 0 375 374.999991" height="500" preserveAspectRatio="xMidYMid meet" version="1.0">
  <path fill="#ffffff" d="M 187.5 145.941406 C 164.609375 145.941406 145.941406 164.609375 145.941406 187.5 C 145.941406 210.390625 164.609375 229.058594 187.5 229.058594 C 210.390625 229.058594 229.058594 210.390625 229.058594 187.5 C 229.058594 164.609375 210.390625 145.941406 187.5 145.941406 Z M 187.5 145.941406 " fill-opacity="1" fill-rule="nonzero"/>
  <path fill="#ffffff" d="M 243.34375 85.550781 L 131.65625 85.550781 C 106.332031 85.550781 85.550781 106.167969 85.550781 131.65625 L 85.550781 243.34375 C 85.550781 268.667969 106.167969 289.449219 131.65625 289.449219 L 243.34375 289.449219 C 268.667969 289.449219 289.449219 268.832031 289.449219 243.34375 L 289.449219 131.65625 C 289.285156 106.167969 268.667969 85.550781 243.34375 85.550781 Z M 187.5 250 C 152.921875 250 124.835938 221.914062 124.835938 187.335938 C 124.835938 152.757812 152.921875 124.675781 187.5 124.675781 C 222.078125 124.675781 250.164062 152.757812 250.164062 187.335938 C 250 221.914062 221.914062 250 187.5 250 Z M 254.546875 135.226562 C 246.265625 135.226562 239.449219 128.410156 239.449219 120.128906 C 239.449219 111.851562 246.265625 105.03125 254.546875 105.03125 C 262.824219 105.03125 269.644531 111.851562 269.644531 120.128906 C 269.644531 128.570312 262.988281 135.226562 254.546875 135.226562 Z M 254.546875 135.226562 " fill-opacity="1" fill-rule="nonzero"/>
  <path fill="#ffffff" d="M 187.5 0 C 83.929688 0 0 83.929688 0 187.5 C 0 291.070312 83.929688 375 187.5 375 C 291.070312 375 375 291.070312 375 187.5 C 374.835938 83.929688 290.910156 0 187.5 0 Z M 310.390625 243.34375 C 310.390625 280.355469 280.195312 310.550781 243.183594 310.550781 L 131.65625 310.550781 C 94.644531 310.550781 64.449219 280.355469 64.449219 243.34375 L 64.449219 131.65625 C 64.449219 94.644531 94.644531 64.449219 131.65625 64.449219 L 243.34375 64.449219 C 280.355469 64.449219 310.550781 94.644531 310.550781 131.65625 L 310.550781 243.34375 Z M 310.390625 243.34375 " fill-opacity="1" fill-rule="nonzero"/>
</svg>
