<svg xmlns="http://www.w3.org/2000/svg" xmlns:xlink="http://www.w3.org/1999/xlink" width="500" zoomAndPan="magnify" viewBox="0 0 375 374.999991" height="500" preserveAspectRatio="xMidYMid meet" version="1.0">
  <path fill="#ffffff" d="M 187.5 0 C 83.945312 0 0 83.945312 0 187.5 C 0 291.054688 83.945312 375 187.5 375 C 291.054688 375 375 291.054688 375 187.5 C 375 83.945312 291.054688 0 187.5 0 Z M 130.914062 279.414062 L 91.5 279.414062 L 91.5 154.539062 L 130.914062 154.539062 Z M 110.195312 138.917969 L 109.914062 138.917969 C 95.644531 138.917969 86.398438 129.375 86.398438 117.261719 C 86.398438 105.148438 95.925781 95.585938 110.476562 95.585938 C 125.023438 95.585938 133.949219 104.90625 134.25 117.242188 C 134.25 129.335938 125.023438 138.917969 110.210938 138.917969 Z M 288.601562 279.414062 L 243.898438 279.414062 L 243.898438 214.78125 C 243.898438 197.867188 236.90625 186.320312 221.53125 186.320312 C 209.773438 186.320312 203.230469 194.117188 200.195312 201.617188 C 199.050781 204.320312 199.238281 208.070312 199.238281 211.820312 L 199.238281 279.394531 L 154.96875 279.394531 C 154.96875 279.394531 155.53125 164.925781 154.96875 154.519531 L 199.238281 154.519531 L 199.238281 174.113281 C 201.84375 165.542969 216 153.320312 238.574219 153.320312 C 266.585938 153.320312 288.601562 171.28125 288.601562 209.960938 Z M 288.601562 279.414062 " fill-opacity="1" fill-rule="nonzero"/>
</svg>
