<svg width="58" height="57" viewBox="0 0 58 57" fill="none" xmlns="http://www.w3.org/2000/svg">
<path d="M49.5258 8.3448C44.0561 2.96685 36.7825 0.00285 29.0333 0C13.0652 0 0.0696037 12.7651 0.0638034 28.4572C0.0609033 33.4732 1.39497 38.3696 3.9297 42.6845L0 57L15.1765 53.4746C19.4078 55.7432 24.1698 56.9373 29.0188 56.9402H29.0304C44.9957 56.9402 57.9913 44.1722 58 28.4829C58.0058 20.8763 54.9954 13.7256 49.5258 8.3448ZM43.2064 38.6289C42.6031 40.2905 39.6479 41.8922 38.3196 42.009C36.9913 42.1287 35.7472 42.5989 29.6337 40.2306C22.276 37.3806 17.63 29.9678 17.2704 29.4947C16.9078 29.0187 14.3151 25.6386 14.3151 22.1388C14.3151 18.639 16.1857 16.9176 16.8498 16.208C17.514 15.4955 18.297 15.3188 18.7813 15.3188C19.2628 15.3188 19.7471 15.3188 20.1676 15.3359C20.6838 15.3558 21.2552 15.3814 21.7975 16.5642C22.4413 17.9721 23.8479 21.489 24.0277 21.8453C24.2075 22.2015 24.3293 22.6176 24.0886 23.0907C23.8479 23.5638 23.7261 23.8602 23.3665 24.2763C23.0039 24.6924 22.6066 25.2025 22.2818 25.5217C21.9193 25.8751 21.5423 26.2628 21.9628 26.9724C22.3862 27.6849 23.8363 30.0134 25.9882 31.8972C28.7549 34.3197 31.0837 35.0693 31.8088 35.4284C32.5338 35.7846 32.9543 35.7248 33.3778 35.2488C33.8012 34.7757 35.1875 33.174 35.6689 32.4615C36.1503 31.749 36.6346 31.8687 37.2988 32.1053C37.9629 32.3418 41.5214 34.0632 42.2435 34.4195C42.9685 34.7757 43.45 34.9524 43.6298 35.2488C43.8096 35.5424 43.8096 36.9674 43.2064 38.6289Z" fill="white"/>
</svg>
