<svg width="118" height="118" viewBox="0 0 118 118" fill="none" xmlns="http://www.w3.org/2000/svg">
<path d="M58.6612 53.7729C62.5286 53.7729 66.3091 52.6261 69.5247 50.4775C72.7403 48.3289 75.2466 45.275 76.7266 41.7021C78.2065 38.1291 78.5938 34.1975 77.8393 30.4044C77.0848 26.6113 75.2225 23.1272 72.4878 20.3925C69.7532 17.6579 66.269 15.7956 62.476 15.0411C58.6829 14.2866 54.7513 14.6738 51.1783 16.1538C47.6053 17.6338 44.5514 20.14 42.4028 23.3556C40.2542 26.5712 39.1074 30.3518 39.1074 34.2191C39.1074 39.4051 41.1675 44.3787 44.8346 48.0458C48.5016 51.7128 53.4752 53.7729 58.6612 53.7729Z" fill="white"/>
<path d="M87.9922 102.657C89.2887 102.657 90.5321 102.142 91.4489 101.226C92.3656 100.309 92.8806 99.0654 92.8806 97.7689C92.8806 88.6935 89.2754 79.9897 82.8581 73.5724C76.4408 67.155 67.737 63.5498 58.6615 63.5498C49.586 63.5498 40.8823 67.155 34.4649 73.5724C28.0476 79.9897 24.4424 88.6935 24.4424 97.7689C24.4424 99.0654 24.9574 100.309 25.8742 101.226C26.7909 102.142 28.0343 102.657 29.3308 102.657H87.9922Z" fill="white"/>
</svg>
